0
SECTION
2
HEADER
9
$INSUNITS
70
4
9
$ACADVER
1
AC1014
9
$HANDSEED
5
FFFF
0
ENDSEC
0
SECTION
2
TABLES
0
TABLE
2
VPORT
5
8
100
AcDbSymbolTable
0
ENDTAB
0
TABLE
2
LTYPE
5
5
100
AcDbSymbolTable
0
LTYPE
5
14
100
AcDbSymbolTableRecord
100
AcDbLinetypeTableRecord
2
BYBLOCK
70
0
0
LTYPE
5
15
100
AcDbSymbolTableRecord
100
AcDbLinetypeTableRecord
2
BYLAYER
70
0
0
LTYPE
5
16
100
AcDbSymbolTableRecord
100
AcDbLinetypeTableRecord
2
DASHED
70
0
3
Dashed __ __ __ __ __ __ __ __ __ __ __ __ __ _
72
65
73
2
40
0.75
49
0.5
74
0
49
-0.25
74
0
0
ENDTAB
0
TABLE
2
LAYER
5
2
100
AcDbSymbolTable
70
2
0
LAYER
5
50
100
AcDbSymbolTableRecord
100
AcDbLayerTableRecord
2
0
70
0
62
7
6
CONTINUOUS
0
ENDTAB
0
TABLE
2
STYLE
5
3
100
AcDbSymbolTable
70
1
0
STYLE
5
11
100
AcDbSymbolTableRecord
100
AcDbTextStyleTableRecord
2
STANDARD
70
0
0
ENDTAB
0
TABLE
2
VIEW
5
6
100
AcDbSymbolTable
70
0
0
ENDTAB
0
TABLE
2
UCS
5
7
100
AcDbSymbolTable
70
0
0
ENDTAB
0
TABLE
2
APPID
5
9
100
AcDbSymbolTable
70
2
0
APPID
5
12
100
AcDbSymbolTableRecord
100
AcDbRegAppTableRecord
2
ACAD
70
0
0
ENDTAB
0
TABLE
2
DIMSTYLE
5
A
100
AcDbSymbolTable
70
1
0
ENDTAB
0
TABLE
2
BLOCK_RECORD
5
1
100
AcDbSymbolTable
70
1
0
BLOCK_RECORD
5
1F
100
AcDbSymbolTableRecord
100
AcDbBlockTableRecord
2
*MODEL_SPACE
0
BLOCK_RECORD
5
1B
100
AcDbSymbolTableRecord
100
AcDbBlockTableRecord
2
*PAPER_SPACE
0
ENDTAB
0
ENDSEC
0
SECTION
2
BLOCKS
0
BLOCK
5
20
100
AcDbEntity
100
AcDbBlockBegin
2
*MODEL_SPACE
0
ENDBLK
5
21
100
AcDbEntity
100
AcDbBlockEnd
0
BLOCK
5
1C
100
AcDbEntity
100
AcDbBlockBegin
2
*PAPER_SPACE
0
ENDBLK
5
1D
100
AcDbEntity
100
AcDbBlockEnd
0
ENDSEC
0
SECTION
2
ENTITIES
0
LWPOLYLINE
5
100
100
AcDbEntity
8
0
100
AcDbPolyline
90
4
70
1
43
0.0
10
-22.611837544977949
20
-32.815636803244246
10
-22.611837544977949
20
-46.815636803244239
10
-36.611837544977952
20
-46.815636803244239
10
-36.611837544977952
20
-32.815636803244239
0
LWPOLYLINE
5
101
100
AcDbEntity
8
0
100
AcDbPolyline
90
4
70
1
43
0.0
10
15.488162455022056
20
-13.765636803244242
10
15.488162455022056
20
-27.765636803244238
10
1.4881624550220529
20
-27.765636803244238
10
1.4881624550220529
20
-13.765636803244238
0
LWPOLYLINE
5
102
100
AcDbEntity
8
0
100
AcDbPolyline
90
4
70
1
43
0.0
10
-36.611837544977952
20
-13.765636803244238
10
-22.611837544977949
20
-13.765636803244242
10
-22.611837544977949
20
-27.765636803244238
10
-36.611837544977952
20
-27.765636803244238
0
LWPOLYLINE
5
103
100
AcDbEntity
8
0
100
AcDbPolyline
90
4
70
1
43
0.0
10
-3.561837544977946
20
-13.765636803244242
10
-3.561837544977946
20
-27.765636803244238
10
-17.561837544977948
20
-27.765636803244238
10
-17.561837544977948
20
-13.765636803244238
0
LWPOLYLINE
5
104
100
AcDbEntity
8
0
100
AcDbPolyline
90
4
70
1
43
0.0
10
-3.561837544977946
20
-32.815636803244246
10
-3.561837544977946
20
-46.815636803244239
10
-17.561837544977948
20
-46.815636803244239
10
-17.561837544977948
20
-32.815636803244239
0
LWPOLYLINE
5
105
100
AcDbEntity
8
0
100
AcDbPolyline
90
4
70
1
43
0.0
10
34.538162455022061
20
-32.815636803244246
10
34.538162455022061
20
-46.815636803244239
10
20.538162455022054
20
-46.815636803244239
10
20.538162455022054
20
-32.815636803244239
0
LWPOLYLINE
5
106
100
AcDbEntity
8
0
100
AcDbPolyline
90
4
70
1
43
0.0
10
34.538162455022061
20
-51.865636803244243
10
34.538162455022061
20
-65.865636803244243
10
20.538162455022054
20
-65.865636803244243
10
20.538162455022054
20
-51.865636803244243
0
LWPOLYLINE
5
107
100
AcDbEntity
8
0
100
AcDbPolyline
90
4
70
1
43
0.0
10
53.588162455022058
20
-32.815636803244246
10
53.588162455022058
20
-46.815636803244239
10
39.588162455022058
20
-46.815636803244239
10
39.588162455022058
20
-32.815636803244239
0
LWPOLYLINE
5
108
100
AcDbEntity
8
0
100
AcDbPolyline
90
4
70
1
43
0.0
10
-22.611837544977949
20
-51.865636803244243
10
-22.611837544977949
20
-65.865636803244243
10
-36.611837544977952
20
-65.865636803244243
10
-36.611837544977952
20
-51.865636803244243
0
LWPOLYLINE
5
109
100
AcDbEntity
8
0
100
AcDbPolyline
90
4
70
1
43
0.0
10
15.488162455022056
20
-51.865636803244243
10
15.488162455022056
20
-65.865636803244243
10
1.4881624550220529
20
-65.865636803244243
10
1.4881624550220529
20
-51.865636803244243
0
LWPOLYLINE
5
110
100
AcDbEntity
8
0
100
AcDbPolyline
90
4
70
1
43
0.0
10
53.588162455022058
20
-51.865636803244243
10
53.588162455022058
20
-65.865636803244243
10
39.588162455022058
20
-65.865636803244243
10
39.588162455022058
20
-51.865636803244243
0
LWPOLYLINE
5
111
100
AcDbEntity
8
0
100
AcDbPolyline
90
4
70
1
43
0.0
10
15.488162455022056
20
-70.915636803244254
10
15.488162455022056
20
-84.91563680324424
10
1.4881624550220529
20
-84.91563680324424
10
1.4881624550220529
20
-70.91563680324424
0
LWPOLYLINE
5
112
100
AcDbEntity
8
0
100
AcDbPolyline
90
4
70
1
43
0.0
10
-22.611837544977949
20
-70.915636803244254
10
-22.611837544977949
20
-84.91563680324424
10
-36.611837544977952
20
-84.91563680324424
10
-36.611837544977952
20
-70.91563680324424
0
LWPOLYLINE
5
113
100
AcDbEntity
8
0
100
AcDbPolyline
90
4
70
1
43
0.0
10
-3.561837544977946
20
-70.915636803244254
10
-3.561837544977946
20
-84.91563680324424
10
-17.561837544977948
20
-84.91563680324424
10
-17.561837544977948
20
-70.91563680324424
0
LWPOLYLINE
5
114
100
AcDbEntity
8
0
100
AcDbPolyline
90
4
70
1
43
0.0
10
53.588162455022058
20
-70.915636803244254
10
53.588162455022058
20
-84.91563680324424
10
39.588162455022058
20
-84.91563680324424
10
39.588162455022058
20
-70.91563680324424
0
LWPOLYLINE
5
115
100
AcDbEntity
8
0
100
AcDbPolyline
90
4
70
1
43
0.0
10
34.538162455022061
20
-70.915636803244254
10
34.538162455022061
20
-84.91563680324424
10
20.538162455022054
20
-84.91563680324424
10
20.538162455022054
20
-70.91563680324424
0
LWPOLYLINE
5
116
100
AcDbEntity
8
0
100
AcDbPolyline
90
4
70
1
43
0.0
10
20.538162455022054
20
-13.765636803244238
10
53.588162455022058
20
-13.765636803244242
10
53.588162455022058
20
-27.765636803244238
10
20.538162455022054
20
-27.765636803244238
0
LWPOLYLINE
5
117
100
AcDbEntity
8
0
100
AcDbPolyline
90
4
70
1
43
0.0
10
-2.5368375449779506
20
-52.340615277241611
42
0.99999999999999989
10
0.46316245502204989
20
-52.340615277241611
10
0.46316245502205711
20
-46.340658329246878
42
0.99999999999999989
10
-2.5368375449779434
20
-46.340658329246878
0
LWPOLYLINE
5
118
100
AcDbEntity
8
0
100
AcDbPolyline
90
4
70
1
43
0.0
10
15.488162455022056
20
-32.815636803244246
10
15.488162455022056
20
-46.815636803244239
10
1.4881624550220529
20
-46.815636803244239
10
1.4881624550220529
20
-32.815636803244239
0
LWPOLYLINE
5
119
100
AcDbEntity
8
0
100
AcDbPolyline
90
4
70
1
43
0.0
10
-3.561837544977946
20
-51.865636803244243
10
-3.561837544977946
20
-65.865636803244243
10
-17.561837544977948
20
-65.865636803244243
10
-17.561837544977948
20
-51.865636803244243
0
LWPOLYLINE
5
120
100
AcDbEntity
8
0
100
AcDbPolyline
90
10
70
1
43
0.0
10
-38.611837544977952
20
-32.690636803244246
42
0.99999999999999989
10
-38.611837544977952
20
-27.890636803244242
10
-38.611837544977952
20
-13.765636803244243
42
-0.41421356237309309
10
-36.611837544977973
20
-11.765636803244242
10
53.588162455022058
20
-11.76563680324424
42
-0.41421356237309537
10
55.588162455022065
20
-13.765636803244243
10
55.588162455022058
20
-84.915636803244254
42
-0.41421356237308982
10
53.588162455022079
20
-86.915636803244226
10
-36.611837544977959
20
-86.91563680324424
42
-0.41421356237309437
10
-38.611837544977952
20
-84.91563680324424
0
CIRCLE
5
121
100
AcDbEntity
8
0
100
AcDbCircle
10
37.063162455022059
20
-30.29063680324424
30
0
40
1.7500000000000002
210
0
220
0
230
1
0
CIRCLE
5
122
100
AcDbEntity
8
0
100
AcDbCircle
10
-20.08683754497795
20
-68.390636803244249
30
0
40
1.7500000000000002
210
0
220
0
230
1
0
CIRCLE
5
123
100
AcDbEntity
8
0
100
AcDbCircle
10
37.063162455022059
20
-68.390636803244249
30
0
40
1.7500000000000002
210
0
220
0
230
1
0
ENDSEC
0
SECTION
2
OBJECTS
0
DICTIONARY
5
C
100
AcDbDictionary
3
ACAD_GROUP
350
D
3
ACAD_MLINESTYLE
350
17
0
DICTIONARY
5
D
100
AcDbDictionary
0
DICTIONARY
5
1A
330
C
100
AcDbDictionary
0
DICTIONARY
5
17
100
AcDbDictionary
0
ENDSEC
0
EOF
